<svg width="68" height="16" viewBox="0 0 68 16" fill="none" xmlns="http://www.w3.org/2000/svg">
<g id="Silicon">
<path d="M6.68046 15.6489C7.43085 15.6489 8.15736 15.5534 8.85999 15.3624C9.56945 15.1714 10.2039 14.8848 10.7633 14.5028C11.3226 14.114 11.766 13.6262 12.0935 13.0396C12.4277 12.4461 12.5949 11.7537 12.5949 10.9624C12.5949 10.2188 12.455 9.60485 12.1753 9.12051C11.9025 8.63617 11.5512 8.24733 11.1214 7.954C10.6984 7.65384 10.255 7.4219 9.79116 7.25818C9.32728 7.08764 8.90434 6.95121 8.52232 6.84888L5.96418 6.15307C5.65038 6.07121 5.34341 5.96888 5.04325 5.84609C4.7431 5.7233 4.49411 5.56299 4.29628 5.36516C4.09845 5.16051 3.99953 4.89788 3.99953 4.57726C3.99953 4.22935 4.11891 3.92919 4.35767 3.67679C4.60325 3.42439 4.91705 3.23338 5.29907 3.10377C5.6879 2.96733 6.10062 2.90594 6.53721 2.91958C7.20573 2.94005 7.81969 3.13788 8.37907 3.51307C8.93845 3.88826 9.3 4.434 9.46372 5.15028L12.4721 4.63865C12.1174 3.25384 11.4284 2.19307 10.4051 1.45633C9.38186 0.719583 8.1062 0.340979 6.57814 0.320514C5.56852 0.313692 4.64759 0.470591 3.81535 0.791211C2.9831 1.11183 2.31798 1.59958 1.82 2.25447C1.32202 2.90935 1.07302 3.73136 1.07302 4.72051C1.07302 5.42315 1.18899 6.0064 1.42093 6.47028C1.65969 6.92733 1.95643 7.2957 2.31116 7.57539C2.66589 7.85508 3.03085 8.06997 3.40604 8.22004C3.78806 8.37012 4.12232 8.48609 4.40883 8.56795L8.23581 9.69353C8.80883 9.86407 9.19085 10.079 9.38186 10.3382C9.57286 10.5906 9.66837 10.8669 9.66837 11.167C9.66837 11.5763 9.52852 11.9208 9.24883 12.2005C8.97596 12.4802 8.62465 12.6917 8.19488 12.8349C7.76511 12.9782 7.3217 13.0498 6.86465 13.0498C6.04604 13.0498 5.31612 12.8213 4.67488 12.3642C4.03364 11.9072 3.6107 11.2557 3.40604 10.4098L0.5 10.8396C0.650077 11.8355 1.00481 12.6951 1.56419 13.4182C2.13039 14.1345 2.85008 14.687 3.72325 15.0759C4.60325 15.4579 5.58899 15.6489 6.68046 15.6489Z" fill="#0B0F19"/>
<path d="M15.0486 2.75586H17.8319V0.300049H15.0486V2.75586ZM15.0486 15.3419H17.8319V4.29074H15.0486V15.3419Z" fill="#0B0F19"/>
<path d="M21.1042 15.3419H23.8875V0.300049H21.1042V15.3419Z" fill="#0B0F19"/>
<path d="M27.1598 2.75586H29.9431V0.300049H27.1598V2.75586ZM27.1598 15.3419H29.9431V4.29074H27.1598V15.3419Z" fill="#0B0F19"/>
<path d="M37.8814 15.6489C39.1639 15.6489 40.2417 15.3317 41.1149 14.6972C41.9881 14.0628 42.5816 13.159 42.8954 11.9856L40.0507 11.3921C39.887 11.9242 39.6414 12.3335 39.314 12.62C38.9865 12.9066 38.509 13.0498 37.8814 13.0498C37.0424 13.0498 36.4079 12.7531 35.9782 12.1596C35.5552 11.5593 35.3438 10.7782 35.3438 9.81632C35.3438 8.89539 35.545 8.12795 35.9475 7.514C36.3568 6.89322 37.0014 6.58284 37.8814 6.58284C38.3931 6.58284 38.8501 6.74314 39.2526 7.06377C39.6619 7.38439 39.9484 7.83121 40.1121 8.40423L42.8954 7.66748C42.6498 6.52826 42.0836 5.63121 41.1968 4.97633C40.3168 4.31462 39.2253 3.98377 37.9224 3.98377C36.7968 3.98377 35.8213 4.23617 34.9959 4.74098C34.1704 5.24578 33.5292 5.93818 33.0721 6.81818C32.6219 7.69818 32.3968 8.69756 32.3968 9.81632C32.3968 10.9214 32.6151 11.914 33.0517 12.794C33.4883 13.674 34.1159 14.3698 34.9345 14.8814C35.7531 15.3931 36.7354 15.6489 37.8814 15.6489Z" fill="#0B0F19"/>
<path d="M49.6153 15.6489C50.7204 15.6489 51.6925 15.4033 52.5316 14.9121C53.3775 14.4141 54.0358 13.7286 54.5065 12.8554C54.984 11.9754 55.2227 10.9624 55.2227 9.81632C55.2227 8.6771 54.9874 7.6709 54.5167 6.79772C54.046 5.91772 53.3877 5.22873 52.5418 4.73074C51.7027 4.23276 50.7272 3.98377 49.6153 3.98377C48.5238 3.98377 47.5585 4.22935 46.7195 4.72051C45.8804 5.21167 45.2221 5.89725 44.7446 6.77725C44.2671 7.65043 44.0283 8.66345 44.0283 9.81632C44.0283 10.9555 44.2603 11.9652 44.7241 12.8452C45.1948 13.7183 45.8497 14.4039 46.6888 14.9019C47.5279 15.3999 48.5034 15.6489 49.6153 15.6489ZM49.6153 13.0498C48.7489 13.0498 48.0906 12.7599 47.6404 12.18C47.197 11.5934 46.9753 10.8055 46.9753 9.81632C46.9753 8.85446 47.1868 8.07679 47.6097 7.4833C48.0395 6.88299 48.708 6.58284 49.6153 6.58284C50.4953 6.58284 51.157 6.87617 51.6004 7.46283C52.0506 8.0495 52.2758 8.834 52.2758 9.81632C52.2758 10.7645 52.0541 11.5422 51.6106 12.1493C51.174 12.7497 50.5089 13.0498 49.6153 13.0498Z" fill="#0B0F19"/>
<path d="M57.4525 15.3419H60.2767V9.73446C60.2767 9.04547 60.3517 8.49291 60.5018 8.07679C60.6587 7.66066 60.8565 7.34687 61.0953 7.13539C61.334 6.9171 61.5898 6.77043 61.8627 6.69539C62.1356 6.62035 62.3914 6.58284 62.6301 6.58284C63.2236 6.58284 63.6807 6.71586 64.0013 6.9819C64.3287 7.24795 64.5641 7.5788 64.7074 7.97446C64.8506 8.37012 64.9359 8.76578 64.9632 9.16144C64.9904 9.55027 65.0041 9.8709 65.0041 10.1233V15.3419H67.8283V9.14097C67.8283 8.95679 67.8146 8.66345 67.7873 8.26097C67.7601 7.85849 67.6816 7.41508 67.552 6.93074C67.4224 6.43958 67.2041 5.96888 66.8971 5.51865C66.597 5.06842 66.174 4.69663 65.6283 4.4033C65.0825 4.10997 64.3765 3.9633 63.5101 3.9633C62.712 3.9633 62.0162 4.09632 61.4227 4.36237C60.8292 4.62842 60.3312 4.98315 59.9287 5.42656V4.29074H57.4525V15.3419Z" fill="#0B0F19"/>
</g>
</svg>
