<svg width="68" height="16" viewBox="0 0 68 16" fill="none" xmlns="http://www.w3.org/2000/svg">
<g id="Silicon">
<path d="M6.68022 15.6488C7.4306 15.6488 8.15712 15.5533 8.85975 15.3623C9.56921 15.1713 10.2036 14.8848 10.763 14.5028C11.3224 14.1139 11.7658 13.6262 12.0932 13.0395C12.4275 12.446 12.5946 11.7536 12.5946 10.9623C12.5946 10.2187 12.4548 9.60479 12.1751 9.12045C11.9022 8.63611 11.5509 8.24727 11.1211 7.95394C10.6982 7.65378 10.2548 7.42184 9.79091 7.25812C9.32704 7.08758 8.90409 6.95115 8.52208 6.84882L5.96394 6.15301C5.65014 6.07115 5.34316 5.96882 5.04301 5.84603C4.74285 5.72324 4.49386 5.56293 4.29603 5.3651C4.0982 5.16045 3.99929 4.89781 3.99929 4.57719C3.99929 4.22929 4.11867 3.92913 4.35743 3.67673C4.60301 3.42433 4.91681 3.23332 5.29882 3.10371C5.68766 2.96727 6.10037 2.90588 6.53696 2.91952C7.20549 2.93999 7.81944 3.13781 8.37882 3.51301C8.9382 3.8882 9.29975 4.43394 9.46347 5.15022L12.4718 4.63859C12.1171 3.25378 11.4281 2.19301 10.4049 1.45627C9.38161 0.719522 8.10595 0.340918 6.57789 0.320453C5.56828 0.313631 4.64735 0.47053 3.8151 0.79115C2.98285 1.11177 2.31774 1.59952 1.81976 2.2544C1.32177 2.90929 1.07278 3.7313 1.07278 4.72045C1.07278 5.42308 1.18875 6.00634 1.42069 6.47022C1.65945 6.92727 1.95619 7.29564 2.31092 7.57533C2.66565 7.85502 3.03061 8.06991 3.4058 8.21998C3.78782 8.37006 4.12208 8.48603 4.40859 8.56789L8.23557 9.69347C8.80859 9.86401 9.1906 10.0789 9.38161 10.3381C9.57262 10.5905 9.66812 10.8668 9.66812 11.167C9.66812 11.5763 9.52828 11.9208 9.24859 12.2004C8.97572 12.4801 8.6244 12.6916 8.19463 12.8349C7.76487 12.9781 7.32146 13.0497 6.8644 13.0497C6.0458 13.0497 5.31588 12.8212 4.67464 12.3642C4.0334 11.9071 3.61045 11.2556 3.4058 10.4097L0.499756 10.8395C0.649833 11.8355 1.00456 12.695 1.56394 13.4181C2.13014 14.1344 2.84983 14.687 3.72301 15.0758C4.60301 15.4578 5.58875 15.6488 6.68022 15.6488Z" fill="white"/>
<path d="M15.0484 2.7558H17.8316V0.299988H15.0484V2.7558ZM15.0484 15.3418H17.8316V4.29068H15.0484V15.3418Z" fill="white"/>
<path d="M21.104 15.3418H23.8872V0.299988H21.104V15.3418Z" fill="white"/>
<path d="M27.1596 2.7558H29.9428V0.299988H27.1596V2.7558ZM27.1596 15.3418H29.9428V4.29068H27.1596V15.3418Z" fill="white"/>
<path d="M37.8812 15.6488C39.1637 15.6488 40.2415 15.3316 41.1147 14.6972C41.9879 14.0628 42.5813 13.1589 42.8951 11.9856L40.0505 11.3921C39.8868 11.9242 39.6412 12.3335 39.3137 12.62C38.9863 12.9065 38.5088 13.0497 37.8812 13.0497C37.0421 13.0497 36.4077 12.753 35.9779 12.1595C35.555 11.5592 35.3435 10.7781 35.3435 9.81626C35.3435 8.89533 35.5448 8.12789 35.9472 7.51394C36.3565 6.89316 37.0012 6.58277 37.8812 6.58277C38.3928 6.58277 38.8499 6.74308 39.2523 7.0637C39.6617 7.38432 39.9482 7.83115 40.1119 8.40417L42.8951 7.66742C42.6496 6.5282 42.0834 5.63115 41.1965 4.97626C40.3165 4.31456 39.2251 3.98371 37.9221 3.98371C36.7965 3.98371 35.821 4.23611 34.9956 4.74091C34.1702 5.24572 33.5289 5.93812 33.0719 6.81812C32.6217 7.69812 32.3965 8.6975 32.3965 9.81626C32.3965 10.9214 32.6148 11.9139 33.0514 12.7939C33.488 13.6739 34.1156 14.3697 34.9342 14.8814C35.7528 15.393 36.7351 15.6488 37.8812 15.6488Z" fill="white"/>
<path d="M49.6151 15.6488C50.7202 15.6488 51.6923 15.4032 52.5313 14.9121C53.3772 14.4141 54.0355 13.7285 54.5062 12.8553C54.9837 11.9753 55.2225 10.9623 55.2225 9.81626C55.2225 8.67704 54.9871 7.67084 54.5164 6.79766C54.0457 5.91766 53.3874 5.22867 52.5416 4.73068C51.7025 4.2327 50.727 3.98371 49.6151 3.98371C48.5236 3.98371 47.5583 4.22929 46.7192 4.72045C45.8802 5.21161 45.2219 5.89719 44.7444 6.77719C44.2668 7.65037 44.0281 8.66339 44.0281 9.81626C44.0281 10.9555 44.26 11.9651 44.7239 12.8451C45.1946 13.7183 45.8495 14.4039 46.6885 14.9018C47.5276 15.3998 48.5031 15.6488 49.6151 15.6488ZM49.6151 13.0497C48.7487 13.0497 48.0904 12.7598 47.6402 12.18C47.1968 11.5933 46.9751 10.8054 46.9751 9.81626C46.9751 8.8544 47.1865 8.07673 47.6095 7.48324C48.0392 6.88293 48.7078 6.58277 49.6151 6.58277C50.495 6.58277 51.1568 6.87611 51.6002 7.46277C52.0504 8.04944 52.2755 8.83393 52.2755 9.81626C52.2755 10.7645 52.0538 11.5422 51.6104 12.1493C51.1738 12.7496 50.5087 13.0497 49.6151 13.0497Z" fill="white"/>
<path d="M57.4522 15.3418H60.2764V9.7344C60.2764 9.04541 60.3514 8.49285 60.5015 8.07673C60.6584 7.6606 60.8563 7.3468 61.095 7.13533C61.3338 6.91704 61.5896 6.77037 61.8625 6.69533C62.1353 6.62029 62.3911 6.58277 62.6299 6.58277C63.2234 6.58277 63.6804 6.7158 64.0011 6.98184C64.3285 7.24789 64.5639 7.57874 64.7071 7.9744C64.8504 8.37006 64.9356 8.76572 64.9629 9.16138C64.9902 9.55021 65.0039 9.87083 65.0039 10.1232V15.3418H67.828V9.14091C67.828 8.95673 67.8144 8.66339 67.7871 8.26091C67.7598 7.85843 67.6814 7.41502 67.5518 6.93068C67.4221 6.43952 67.2038 5.96882 66.8969 5.51859C66.5967 5.06836 66.1738 4.69657 65.628 4.40324C65.0823 4.10991 64.3763 3.96324 63.5099 3.96324C62.7118 3.96324 62.0159 4.09626 61.4225 4.36231C60.829 4.62836 60.331 4.98309 59.9285 5.4265V4.29068H57.4522V15.3418Z" fill="white"/>
</g>
</svg>
