<svg width="20" height="20" viewBox="0 0 20 20" fill="none" xmlns="http://www.w3.org/2000/svg">
<g id="icons / bx-envelope" opacity="0.4">
<path id="Vector" d="M16.6667 3.33333H3.33341C2.41425 3.33333 1.66675 4.08083 1.66675 5V15C1.66675 15.9192 2.41425 16.6667 3.33341 16.6667H16.6667C17.5859 16.6667 18.3334 15.9192 18.3334 15V5C18.3334 4.08083 17.5859 3.33333 16.6667 3.33333ZM16.6667 5V5.42583L10.0001 10.6117L3.33341 5.42667V5H16.6667ZM3.33341 15V7.53666L9.48841 12.3242C9.63841 12.4417 9.81925 12.5 10.0001 12.5C10.1809 12.5 10.3617 12.4417 10.5117 12.3242L16.6667 7.53666L16.6684 15H3.33341Z" fill="#22C55E"/>
</g>
</svg>
